<svg xmlns="http://www.w3.org/2000/svg" width="12.2" height="10.2" viewBox="0 0 12.2 10.2">
  <g id="Icon_feather-camera" data-name="Icon feather-camera" transform="translate(-0.9 -3.9)">
    <path id="Path_42" data-name="Path 42" d="M12.5,12.5a1,1,0,0,1-1,1h-9a1,1,0,0,1-1-1V7a1,1,0,0,1,1-1h2l1-1.5h3L9.5,6h2a1,1,0,0,1,1,1Z" fill="none" stroke="#fff" stroke-linecap="round" stroke-linejoin="round" stroke-width="1.2"/>
    <path id="Path_43" data-name="Path 43" d="M15.636,15.318A1.818,1.818,0,1,1,13.818,13.5,1.818,1.818,0,0,1,15.636,15.318Z" transform="translate(-6.818 -5.782)" fill="none" stroke="#fff" stroke-linecap="round" stroke-linejoin="round" stroke-width="1.2"/>
  </g>
</svg>
