<svg xmlns="http://www.w3.org/2000/svg" width="17.5" height="20" viewBox="0 0 17.5 20">
  <g id="Icon_awesome-bell" data-name="Icon awesome-bell" transform="translate(0)" fill="#fff">
    <path d="M 8.749979019165039 19.39999961853027 C 7.912375926971436 19.39999961853027 7.199725151062012 18.85458374023438 6.948146820068359 18.10000038146973 L 10.55181121826172 18.10000038146973 C 10.30023288726807 18.85458374023438 9.587582588195801 19.39999961853027 8.749979019165039 19.39999961853027 Z M 16.24606895446777 15.64999961853027 L 1.253888964653015 15.64999961853027 C 0.8473089933395386 15.64999961853027 0.6021190285682678 15.31746006011963 0.5999690294265747 14.99596977233887 C 0.5988889932632446 14.8335599899292 0.6579890251159668 14.6870698928833 0.7756190299987793 14.56060981750488 C 0.8209789991378784 14.51187992095947 0.8688890337944031 14.46152973175049 0.9187690019607544 14.40907955169678 C 1.73573899269104 13.55020046234131 3.10309910774231 12.11268997192383 3.10309910774231 8.125 C 3.10309910774231 5.455100059509277 4.961668968200684 3.204329967498779 7.622798919677734 2.651520013809204 L 8.10075855255127 2.552229881286621 L 8.10075855255127 2.064059972763062 L 8.10075855255127 1.25 C 8.10075855255127 0.8915899991989136 8.391999244689941 0.6000000238418579 8.749979019165039 0.6000000238418579 C 9.107958793640137 0.6000000238418579 9.399199485778809 0.8915899991989136 9.399199485778809 1.25 L 9.399199485778809 2.064059972763062 L 9.399199485778809 2.552229881286621 L 9.877159118652344 2.651520013809204 C 12.53828907012939 3.204329967498779 14.39685916900635 5.455100059509277 14.39685916900635 8.125 C 14.39685916900635 12.11266994476318 15.76420879364014 13.55018043518066 16.58116912841797 14.40907001495361 C 16.63105964660645 14.46150970458984 16.67897987365723 14.51187038421631 16.72442817687988 14.56070995330811 C 16.87090873718262 14.71794033050537 16.90072822570801 14.88420009613037 16.89998817443848 14.9960298538208 C 16.89802932739258 15.31764984130859 16.65289878845215 15.64999961853027 16.24606895446777 15.64999961853027 Z" stroke="none"/>
    <path d="M 8.749979019165039 18.79999923706055 C 8.926925659179688 18.79999923706055 9.095677375793457 18.76441955566406 9.249547958374023 18.70000076293945 L 8.250410079956055 18.70000076293945 C 8.404280662536621 18.76441955566406 8.573032379150391 18.79999923706055 8.749979019165039 18.79999923706055 M 16.24606895446777 15.05000019073486 C 16.29442977905273 15.05000019073486 16.29989814758301 15.00990962982178 16.29980850219727 14.98890972137451 C 16.29978942871094 14.98884963989258 16.29729843139648 14.98244953155518 16.28519821166992 14.96945953369141 C 16.24117851257324 14.92216014862061 16.19474983215332 14.87339019775391 16.14642906188965 14.82258987426758 C 15.26765918731689 13.89871978759766 13.79685878753662 12.35245037078857 13.79685878753662 8.125 C 13.79685878753662 5.74252986907959 12.13483905792236 3.733319997787476 9.755128860473633 3.238980054855347 L 8.799199104309082 3.04040002822876 L 8.799199104309082 1.25 C 8.799199104309082 1.222429990768433 8.777118682861328 1.200000047683716 8.749979019165039 1.200000047683716 C 8.72283935546875 1.200000047683716 8.700758934020996 1.222429990768433 8.700758934020996 1.25 L 8.700758934020996 3.04040002822876 L 7.744829177856445 3.238980054855347 C 5.365118980407715 3.733319997787476 3.703099012374878 5.74252986907959 3.703099012374878 8.125 C 3.703099012374878 12.35247993469238 2.23228907585144 13.8987398147583 1.353509068489075 14.82260990142822 C 1.30518901348114 14.87339973449707 1.258769035339355 14.92216968536377 1.214938998222351 14.96926975250244 C 1.204589009284973 14.98038959503174 1.200659036636353 14.98754024505615 1.199949026107788 14.99195003509521 C 1.200069069862366 15.00940036773682 1.205559015274048 15.05000019073486 1.253888964653015 15.05000019073486 L 16.24606895446777 15.05000019073486 M 8.749979019165039 20 C 7.370288848876953 20 6.25114917755127 18.880859375 6.25114917755127 17.5 L 11.24880886077881 17.5 C 11.24880886077881 18.880859375 10.12966918945312 20 8.749979019165039 20 Z M 16.24606895446777 16.25 L 1.253888964653015 16.25 C 0.5070090293884277 16.25 0.004279019311070442 15.64062976837158 -2.09808349609375e-05 15 C -0.001970980782061815 14.70508003234863 0.1019290164113045 14.40390968322754 0.336309015750885 14.15194988250732 C 1.090999007225037 13.34101963043213 2.503098964691162 12.12108993530273 2.503098964691162 8.125 C 2.503098964691162 5.089839935302734 4.631228923797607 2.660160064697266 7.500759124755859 2.064059972763062 L 7.500759124755859 1.25 C 7.500759124755859 0.5597699880599976 8.060138702392578 0 8.749979019165039 0 C 9.4398193359375 0 9.999198913574219 0.5597699880599976 9.999198913574219 1.25 L 9.999198913574219 2.064059972763062 C 12.86872863769531 2.660160064697266 14.99685859680176 5.089839935302734 14.99685859680176 8.125 C 14.99685859680176 12.12108993530273 16.40896987915039 13.34101963043213 17.16364860534668 14.15194988250732 C 17.39802932739258 14.40351963043213 17.50192832946777 14.70508003234863 17.49997901916504 15 C 17.49606895446777 15.64062976837158 16.99294853210449 16.25 16.24606895446777 16.25 Z" stroke="none" fill="#fff"/>
  </g>
</svg>
