<svg xmlns="http://www.w3.org/2000/svg" width="17.5" height="20" viewBox="0 0 17.5 20">
  <g id="Icon_awesome-bell" data-name="Icon awesome-bell" transform="translate(0)" fill="none">
    <path d="M8.75,20a2.5,2.5,0,0,0,2.5-2.5h-5A2.5,2.5,0,0,0,8.75,20Zm8.414-5.848C16.409,13.341,15,12.121,15,8.125a6.169,6.169,0,0,0-5-6.061V1.25a1.249,1.249,0,1,0-2.5,0v.814a6.169,6.169,0,0,0-5,6.061c0,4-1.412,5.216-2.167,6.027A1.22,1.22,0,0,0,0,15a1.251,1.251,0,0,0,1.254,1.25H16.246A1.251,1.251,0,0,0,17.5,15a1.22,1.22,0,0,0-.336-.848Z" stroke="none"/>
    <path d="M 8.749979019165039 18.79999923706055 C 8.926925659179688 18.79999923706055 9.095677375793457 18.76441955566406 9.249547958374023 18.70000076293945 L 8.250410079956055 18.70000076293945 C 8.404280662536621 18.76441955566406 8.573032379150391 18.79999923706055 8.749979019165039 18.79999923706055 M 16.24606895446777 15.05000019073486 C 16.29442977905273 15.05000019073486 16.29989814758301 15.00990962982178 16.29980850219727 14.98890972137451 C 16.29978942871094 14.98884963989258 16.29729843139648 14.98244953155518 16.28519821166992 14.96945953369141 C 16.24117851257324 14.92216014862061 16.19474983215332 14.87339019775391 16.14642906188965 14.82258987426758 C 15.26765918731689 13.89871978759766 13.79685878753662 12.35245037078857 13.79685878753662 8.125 C 13.79685878753662 5.74252986907959 12.13483905792236 3.733319997787476 9.755128860473633 3.238980054855347 L 8.799199104309082 3.04040002822876 L 8.799199104309082 1.25 C 8.799199104309082 1.222429990768433 8.777118682861328 1.200000047683716 8.749979019165039 1.200000047683716 C 8.72283935546875 1.200000047683716 8.700758934020996 1.222429990768433 8.700758934020996 1.25 L 8.700758934020996 3.04040002822876 L 7.744829177856445 3.238980054855347 C 5.365118980407715 3.733319997787476 3.703099012374878 5.74252986907959 3.703099012374878 8.125 C 3.703099012374878 12.35247993469238 2.23228907585144 13.8987398147583 1.353509068489075 14.82260990142822 C 1.30518901348114 14.87339973449707 1.258769035339355 14.92216968536377 1.214938998222351 14.96926975250244 C 1.204589009284973 14.98038959503174 1.200659036636353 14.98754024505615 1.199949026107788 14.99195003509521 C 1.200069069862366 15.00940036773682 1.205559015274048 15.05000019073486 1.253888964653015 15.05000019073486 L 16.24606895446777 15.05000019073486 M 8.749979019165039 20 C 7.370288848876953 20 6.25114917755127 18.880859375 6.25114917755127 17.5 L 11.24880886077881 17.5 C 11.24880886077881 18.880859375 10.12966918945312 20 8.749979019165039 20 Z M 16.24606895446777 16.25 L 1.253888964653015 16.25 C 0.5070090293884277 16.25 0.004279019311070442 15.64062976837158 -2.09808349609375e-05 15 C -0.001970980782061815 14.70508003234863 0.1019290164113045 14.40390968322754 0.336309015750885 14.15194988250732 C 1.090999007225037 13.34101963043213 2.503098964691162 12.12108993530273 2.503098964691162 8.125 C 2.503098964691162 5.089839935302734 4.631228923797607 2.660160064697266 7.500759124755859 2.064059972763062 L 7.500759124755859 1.25 C 7.500759124755859 0.5597699880599976 8.060138702392578 0 8.749979019165039 0 C 9.4398193359375 0 9.999198913574219 0.5597699880599976 9.999198913574219 1.25 L 9.999198913574219 2.064059972763062 C 12.86872863769531 2.660160064697266 14.99685859680176 5.089839935302734 14.99685859680176 8.125 C 14.99685859680176 12.12108993530273 16.40896987915039 13.34101963043213 17.16364860534668 14.15194988250732 C 17.39802932739258 14.40351963043213 17.50192832946777 14.70508003234863 17.49997901916504 15 C 17.49606895446777 15.64062976837158 16.99294853210449 16.25 16.24606895446777 16.25 Z" stroke="none" fill="#fff"/>
  </g>
</svg>
