<svg xmlns="http://www.w3.org/2000/svg" width="16" height="17.667" viewBox="0 0 16 17.667">
  <path id="Icon_ionic-md-share" data-name="Icon ionic-md-share" d="M17.826,15.612a2.429,2.429,0,0,0-1.738.666L9.714,12.593a2.985,2.985,0,0,0,.089-.622,2.983,2.983,0,0,0-.089-.622L16,7.71a2.667,2.667,0,1,0-.847-1.953,2.967,2.967,0,0,0,.089.622l-6.284,3.64a2.683,2.683,0,0,0-1.827-.71A2.639,2.639,0,0,0,4.5,11.972,2.683,2.683,0,0,0,9,13.925l6.329,3.684a2.227,2.227,0,0,0-.089.577,2.585,2.585,0,1,0,2.585-2.574Z" transform="translate(-4.5 -3.094)" fill="#434343"/>
</svg>
