<svg xmlns="http://www.w3.org/2000/svg" width="40" height="38.4" viewBox="0 0 40 38.4">
  <g id="Polygon_47" data-name="Polygon 47" fill="none">
    <path d="M18.112,5.391a2,2,0,0,1,3.775,0l2.656,7.586a2,2,0,0,0,1.836,1.338l8.006.207A2,2,0,0,1,35.558,18.1l-6.387,4.941a2,2,0,0,0-.7,2.146l2.284,7.764a2,2,0,0,1-3.06,2.207l-6.558-4.556a2,2,0,0,0-2.282,0L12.3,35.162a2,2,0,0,1-3.06-2.207l2.284-7.764a2,2,0,0,0-.7-2.146L4.442,18.1a2,2,0,0,1,1.172-3.581l8.006-.207a2,2,0,0,0,1.836-1.338Z" stroke="none"/>
    <path d="M 20 5.852157592773438 C 19.85811996459961 5.852157592773438 19.82991027832031 5.932746887207031 19.81123924255371 5.986064910888672 L 17.15501976013184 13.57241630554199 C 16.63661956787109 15.05298614501953 15.23471069335938 16.07492637634277 13.66654968261719 16.11538505554199 L 5.660881042480469 16.32199478149414 C 5.604721069335938 16.32344627380371 5.519840240478516 16.32563591003418 5.475959777832031 16.45972633361816 C 5.432079315185547 16.59379577636719 5.499229431152344 16.6457462310791 5.543670654296875 16.68012619018555 L 11.93070983886719 21.62083625793457 C 13.17778968811035 22.58551597595215 13.69613075256348 24.18619537353516 13.25124931335449 25.69875526428223 L 10.96763038635254 33.46303558349609 C 10.94286918640137 33.54718780517578 10.95487022399902 33.58545684814453 10.98567008972168 33.62661743164062 C 11.02873039245605 33.68415451049805 11.10585021972656 33.72754669189453 11.16506958007812 33.72754669189453 C 11.17630958557129 33.72754669189453 11.21051025390625 33.72754669189453 11.27359962463379 33.6837158203125 L 17.8320198059082 29.12783432006836 C 18.47158050537109 28.68354606628418 19.22125053405762 28.44870567321777 20 28.44870567321777 C 20.77874946594238 28.44870567321777 21.52841949462891 28.68354606628418 22.16795921325684 29.12781524658203 L 28.72637939453125 33.6837043762207 C 28.78948974609375 33.72754669189453 28.82250022888184 33.72754669189453 28.83493041992188 33.72754669189453 C 28.89410018920898 33.72754669189453 28.97119903564453 33.68413543701172 29.0142707824707 33.62656402587891 C 29.04508972167969 33.58537673950195 29.05710983276367 33.54711532592773 29.03236961364746 33.4630241394043 L 26.74874877929688 25.69876480102539 C 26.30387115478516 24.18619537353516 26.82221031188965 22.58551597595215 28.06929016113281 21.62084579467773 L 34.45632934570312 16.68011665344238 C 34.50077056884766 16.6457462310791 34.56792068481445 16.59379577636719 34.52404022216797 16.45971488952637 C 34.48014831542969 16.32563591003418 34.39527893066406 16.32344627380371 34.33911895751953 16.32199478149414 L 26.33343887329102 16.11538505554199 C 24.76527976989746 16.07490539550781 23.36337089538574 15.05296516418457 22.844970703125 13.5724048614502 L 20.18876075744629 5.986064910888672 C 20.17008972167969 5.932746887207031 20.14188003540039 5.852157592773438 20 5.852157592773438 M 20 4.052154541015625 C 20.78753471374512 4.052154541015625 21.57506942749023 4.498516082763672 21.88763999938965 5.3912353515625 L 24.54384994506836 12.97757530212402 C 24.81842994689941 13.76178550720215 25.54928016662598 14.29454612731934 26.37989044189453 14.31598663330078 L 34.38555908203125 14.52259635925293 C 36.26602172851562 14.57112503051758 37.04555130004883 16.95291519165039 35.55767059326172 18.10386657714844 L 29.17063140869141 23.04458618164062 C 28.5190601348877 23.54860496520996 28.2431697845459 24.40057563781738 28.47560882568359 25.19085693359375 L 30.75922966003418 32.95512390136719 C 31.29187965393066 34.76610565185547 29.24979591369629 36.23898315429688 27.69947052001953 35.16203689575195 L 21.14102935791016 30.60613632202148 C 20.45499038696289 30.12956619262695 19.54500961303711 30.12956619262695 18.85897064208984 30.60613632202148 L 12.30052947998047 35.16203689575195 C 10.75020217895508 36.23898315429688 8.708118438720703 34.76610565185547 9.24077033996582 32.95512390136719 L 11.52438926696777 25.19085693359375 C 11.7568302154541 24.40057563781738 11.4809398651123 23.54860496520996 10.82937049865723 23.04458618164062 L 4.442329406738281 18.10386657714844 C 2.954441070556641 16.95291519165039 3.733978271484375 14.57112503051758 5.61444091796875 14.52259635925293 L 13.62010955810547 14.31598663330078 C 14.45072937011719 14.2945556640625 15.18157005310059 13.76178550720215 15.45615005493164 12.97757530212402 L 18.11236000061035 5.3912353515625 C 18.42493057250977 4.498516082763672 19.21246528625488 4.052154541015625 20 4.052154541015625 Z" stroke="none" fill="#9a9a9a"/>
  </g>
</svg>
