<svg xmlns="http://www.w3.org/2000/svg" width="40" height="38.4" viewBox="0 0 40 38.4">
  <g id="Polygon_48" data-name="Polygon 48" fill="#fbc71a">
    <path d="M 28.83493041992188 34.62754440307617 C 28.61771011352539 34.62755584716797 28.40843963623047 34.55868530273438 28.21294021606445 34.42287445068359 L 21.65448951721191 29.86697578430176 C 21.16641044616699 29.52792549133301 20.59429931640625 29.34870529174805 20 29.34870529174805 C 19.40570068359375 29.34870529174805 18.83358955383301 29.52792549133301 18.34550094604492 29.86697578430176 L 11.78707027435303 34.42287445068359 C 11.59156036376953 34.55868530273438 11.38228988647461 34.62754440307617 11.16506958007812 34.62754440307617 C 10.82303047180176 34.62754440307617 10.47817039489746 34.45061492919922 10.26506996154785 34.16580581665039 C 10.12024021148682 33.97224426269531 9.974769592285156 33.64914703369141 10.10420036315918 33.20907592773438 L 12.38782024383545 25.44481658935547 C 12.72733020782471 24.29048538208008 12.33174991607666 23.06890487670898 11.38004016876221 22.33271598815918 L 4.993000030517578 17.39199638366699 C 4.423510074615479 16.95146560668945 4.563990116119385 16.3527660369873 4.620610237121582 16.17976570129395 C 4.677229881286621 16.00676536560059 4.917910099029541 15.44087600708008 5.637660026550293 15.42229557037354 L 13.64332962036133 15.21568584442139 C 14.84008026123047 15.18480587005615 15.90995979309082 14.40490531921387 16.30558967590332 13.27499580383301 L 18.96179962158203 5.688655853271484 C 19.20107078552246 5.005275726318359 19.81694984436035 4.952165603637695 20 4.952165603637695 C 20.18305969238281 4.952165603637695 20.79892921447754 5.005275726318359 21.03820037841797 5.688655853271484 L 23.69441032409668 13.27498531341553 C 24.09003067016602 14.40488529205322 25.15991020202637 15.18479537963867 26.35667037963867 15.21568584442139 L 34.36233901977539 15.42229557037354 C 35.08209991455078 15.44087600708008 35.32276916503906 16.00677490234375 35.37939071655273 16.17977523803711 C 35.43600845336914 16.35277557373047 35.57648849487305 16.95146560668945 35.00699996948242 17.39199638366699 L 28.61996078491211 22.33271598815918 C 27.66823959350586 23.06890487670898 27.27267074584961 24.29048538208008 27.61218070983887 25.44480514526367 L 29.89579963684082 33.20907592773438 C 30.02520942687988 33.64906692504883 29.87972068786621 33.97217559814453 29.73488998413086 34.16575622558594 C 29.52176094055176 34.45059585571289 29.17691040039062 34.62754440307617 28.83493041992188 34.62754440307617 Z" stroke="none"/>
    <path d="M 20 5.852157592773438 C 19.85811996459961 5.852157592773438 19.82991027832031 5.932746887207031 19.81123924255371 5.986064910888672 L 17.15501976013184 13.57241630554199 C 16.63661956787109 15.05298614501953 15.23471069335938 16.07492637634277 13.66654968261719 16.11538505554199 L 5.660881042480469 16.32199478149414 C 5.604721069335938 16.32344627380371 5.519840240478516 16.32563591003418 5.475959777832031 16.45972633361816 C 5.432079315185547 16.59379577636719 5.499229431152344 16.6457462310791 5.543670654296875 16.68012619018555 L 11.93070983886719 21.62083625793457 C 13.17778968811035 22.58551597595215 13.69613075256348 24.18619537353516 13.25124931335449 25.69875526428223 L 10.96763038635254 33.46303558349609 C 10.94286918640137 33.54718780517578 10.95487022399902 33.58545684814453 10.98567008972168 33.62661743164062 C 11.02873039245605 33.68415451049805 11.10585021972656 33.72754669189453 11.16506958007812 33.72754669189453 C 11.17630958557129 33.72754669189453 11.21051025390625 33.72754669189453 11.27359962463379 33.6837158203125 L 17.8320198059082 29.12783432006836 C 18.47158050537109 28.68354606628418 19.22125053405762 28.44870567321777 20 28.44870567321777 C 20.77874946594238 28.44870567321777 21.52841949462891 28.68354606628418 22.16795921325684 29.12781524658203 L 28.72637939453125 33.6837043762207 C 28.78948974609375 33.72754669189453 28.82250022888184 33.72754669189453 28.83493041992188 33.72754669189453 C 28.89410018920898 33.72754669189453 28.97119903564453 33.68413543701172 29.0142707824707 33.62656402587891 C 29.04508972167969 33.58537673950195 29.05710983276367 33.54711532592773 29.03236961364746 33.4630241394043 L 26.74874877929688 25.69876480102539 C 26.30387115478516 24.18619537353516 26.82221031188965 22.58551597595215 28.06929016113281 21.62084579467773 L 34.45632934570312 16.68011665344238 C 34.50077056884766 16.6457462310791 34.56792068481445 16.59379577636719 34.52404022216797 16.45971488952637 C 34.48014831542969 16.32563591003418 34.39527893066406 16.32344627380371 34.33911895751953 16.32199478149414 L 26.33343887329102 16.11538505554199 C 24.76527976989746 16.07490539550781 23.36337089538574 15.05296516418457 22.844970703125 13.5724048614502 L 20.18876075744629 5.986064910888672 C 20.17008972167969 5.932746887207031 20.14188003540039 5.852157592773438 20 5.852157592773438 M 20 4.052154541015625 C 20.78753471374512 4.052154541015625 21.57506942749023 4.498516082763672 21.88763999938965 5.3912353515625 L 24.54384994506836 12.97757530212402 C 24.81842994689941 13.76178550720215 25.54928016662598 14.29454612731934 26.37989044189453 14.31598663330078 L 34.38555908203125 14.52259635925293 C 36.26602172851562 14.57112503051758 37.04555130004883 16.95291519165039 35.55767059326172 18.10386657714844 L 29.17063140869141 23.04458618164062 C 28.5190601348877 23.54860496520996 28.2431697845459 24.40057563781738 28.47560882568359 25.19085693359375 L 30.75922966003418 32.95512390136719 C 31.29187965393066 34.76610565185547 29.24979591369629 36.23898315429688 27.69947052001953 35.16203689575195 L 21.14102935791016 30.60613632202148 C 20.45499038696289 30.12956619262695 19.54500961303711 30.12956619262695 18.85897064208984 30.60613632202148 L 12.30052947998047 35.16203689575195 C 10.75020217895508 36.23898315429688 8.708118438720703 34.76610565185547 9.24077033996582 32.95512390136719 L 11.52438926696777 25.19085693359375 C 11.7568302154541 24.40057563781738 11.4809398651123 23.54860496520996 10.82937049865723 23.04458618164062 L 4.442329406738281 18.10386657714844 C 2.954441070556641 16.95291519165039 3.733978271484375 14.57112503051758 5.61444091796875 14.52259635925293 L 13.62010955810547 14.31598663330078 C 14.45072937011719 14.2945556640625 15.18157005310059 13.76178550720215 15.45615005493164 12.97757530212402 L 18.11236000061035 5.3912353515625 C 18.42493057250977 4.498516082763672 19.21246528625488 4.052154541015625 20 4.052154541015625 Z" stroke="none" fill="#fbc71a"/>
  </g>
</svg>
